<?xml version="1.0" encoding="utf-8"?>
<!-- Generator: Adobe Illustrator 22.0.1, SVG Export Plug-In . SVG Version: 6.00 Build 0)  -->
<svg version="1.1" id="Layer_1" xmlns="http://www.w3.org/2000/svg" xmlns:xlink="http://www.w3.org/1999/xlink" x="0px" y="0px"
	 viewBox="0 0 313.2 50" style="enable-background:new 0 0 313.2 50;" xml:space="preserve">
<style type="text/css">
	.st0{fill:#4E1E78;}
	.st1{fill:#0B8ED8;}
</style>
<g>
	<path class="st0" d="M50,1.6C50,0.7,49.3,0,48.4,0H1.6C0.7,0,0,0.7,0,1.6v46.8C0,49.3,0.7,50,1.6,50h46.8c0.9,0,1.6-0.7,1.6-1.6
		V1.6z M42.4,31.4l-5.9-2.1c-0.5,1.4-1.2,2.6-2.2,3.8l4.8,4c-1.4,1.7-3.1,3.1-5,4.2L31,35.9c-1.2,0.7-2.6,1.2-4.1,1.5l1.1,6.2
		c-1.1,0.2-2.2,0.3-3.3,0.3s-2.2-0.1-3.2-0.3l1.1-6.2c-1.5-0.3-2.8-0.8-4.1-1.5l-3.1,5.4c-1.9-1.1-3.6-2.5-5-4.2l4.8-4
		c-0.9-1.1-1.7-2.4-2.2-3.8l-5.9,2.1c-0.7-2.1-1.2-4.2-1.2-6.4H12c0-1.5,0.4-2.9,0.9-4.3l-5.7-2.1c0.7-2.1,1.8-4,3.2-5.6l4.8,4
		c0.9-1.1,2.1-2.1,3.3-2.8l-3.1-5.4c1.9-1.1,4-1.9,6.1-2.2l1.1,6.2c0.7-0.1,1.4-0.2,2.2-0.2c0.7,0,1.5,0.1,2.1,0.2L28,6.5
		c2.2,0.4,4.2,1.1,6.1,2.2L31,14.1c1.3,0.7,2.4,1.7,3.3,2.8l4.8-4c1.4,1.7,2.5,3.6,3.3,5.6l-5.9,2.2c0.5,1.3,0.8,2.7,0.8,4.3h6.3
		C43.6,27.2,43.2,29.4,42.4,31.4L42.4,31.4z"/>
	<path class="st0" d="M69.7,12.9c5,0,8.2,2.3,8.2,6.1c0,2.7-1.6,4.8-4.3,5.4c3.3,0.6,5.2,2.9,5.2,6.2c0,4.2-3.4,6.7-8.9,6.7H59.2
		V12.9H69.7z M63.3,23h6.3c2.6,0,4.2-1.2,4.2-3.3s-1.6-3.2-4.2-3.2h-6.3V23z M63.3,33.6h6.3c3.2,0,5.1-1.3,5.1-3.5s-1.9-3.4-5.1-3.4
		h-6.3V33.6z"/>
	<path class="st0" d="M97.6,33.5v3.7H83V12.9h4.1v20.6H97.6z"/>
	<path class="st0" d="M124.6,25.1c0,7-5.6,12.3-12.9,12.3S98.8,32,98.8,25.1c0-7,5.6-12.3,12.9-12.3S124.6,18.1,124.6,25.1z
		 M103,25.1c0,4.8,4,8.7,8.8,8.7s8.7-3.8,8.7-8.7c0-4.8-3.9-8.6-8.7-8.6S103,20.2,103,25.1z"/>
	<path class="st0" d="M149.4,16.5l-2.4,3c-1.8-1.9-4.3-3.1-6.8-3.1c-4.9,0-8.7,3.8-8.7,8.5s3.8,8.6,8.7,8.6c2.4,0,4.9-1.1,6.8-2.9
		l2.4,2.7c-2.5,2.4-6,4-9.4,4c-7.1,0-12.6-5.4-12.6-12.4c0-6.9,5.6-12.2,12.8-12.2C143.6,12.8,147.1,14.2,149.4,16.5L149.4,16.5z"/>
	<path class="st0" d="M160.5,26.5l-4.1,4.6v6.2h-4.1V12.9h4.1v12.6L168,12.9h4.8l-9.4,10.4l10,13.9h-4.9L160.5,26.5z"/>
</g>
<path class="st1" d="M196.5,16.5l-2.4,3c-1.8-1.9-4.3-3.1-6.8-3.1c-4.9,0-8.7,3.8-8.7,8.5s3.8,8.6,8.7,8.6c2.4,0,4.9-1.1,6.8-2.9
	l2.4,2.7c-2.5,2.4-6,4-9.4,4c-7.1,0-12.6-5.4-12.6-12.4c0-6.9,5.6-12.2,12.8-12.2C190.7,12.8,194.2,14.2,196.5,16.5L196.5,16.5z"/>
<path class="st1" d="M210.7,37.2h-4.1v-8l-9.1-16.4h4.1l7,11.9l6.8-11.9h4.2L210.7,29V37.2z"/>
<path class="st1" d="M231.9,12.9c6.1,0,9.6,3,9.6,8.3c0,5.5-3.5,8.7-9.6,8.7h-5.6v7.3h-4.1V12.9H231.9z M226.3,26.2h5.4
	c3.8,0,5.9-1.6,5.9-4.9c0-3.2-2.1-4.7-5.9-4.7h-5.4V26.2z"/>
<path class="st1" d="M261.8,37.2V27.1H249v10.1h-4.1V12.9h4.1v10.6h12.9V12.9h4.1v24.3H261.8z"/>
<path class="st1" d="M275.1,16.6v6.6H287v3.7h-11.9v6.7h13.7v3.7H271V12.9h17.4v3.7H275.1z"/>
<path class="st1" d="M304,29.9h-1.1h-5.8v7.3H293V12.9h9.9c6.2,0,9.8,3,9.8,8.3c0,3.9-1.8,6.6-5,7.9l5.5,8.1h-4.7L304,29.9z
	 M302.9,26.2c3.8,0,5.9-1.6,5.9-4.9c0-3.2-2.2-4.7-5.9-4.7h-5.8v9.6L302.9,26.2z"/>
</svg>
